<?xml version="1.0" encoding="utf-8"?>
<!-- Generator: Adobe Illustrator 27.0.0, SVG Export Plug-In . SVG Version: 6.00 Build 0)  -->
<svg version="1.1" id="Layer_1" xmlns="http://www.w3.org/2000/svg" xmlns:xlink="http://www.w3.org/1999/xlink" x="0px" y="0px"
	 viewBox="0 0 60 60" style="enable-background:new 0 0 60 60;" xml:space="preserve">
<style type="text/css">
	.st0{fill:url(#SVGID_1_);}
	.st1{fill:#2C3E50;}
</style>
<linearGradient id="SVGID_1_" gradientUnits="userSpaceOnUse" x1="10.4995" y1="11.0586" x2="49.2513" y2="52.6739" gradientTransform="matrix(1 0 0 -1 0 62)">
	<stop  offset="0" style="stop-color:#F0C419"/>
	<stop  offset="0.1441" style="stop-color:#EDBA1D"/>
	<stop  offset="0.4178" style="stop-color:#E9AC22"/>
	<stop  offset="0.6997" style="stop-color:#E6A423"/>
	<stop  offset="1" style="stop-color:#E5A124"/>
</linearGradient>
<path class="st0" d="M45.32,52.1H14.68c-3.75,0-6.78-3.04-6.78-6.78V14.68c0-3.75,3.04-6.78,6.78-6.78h30.63
	c3.75,0,6.78,3.04,6.78,6.78v30.63C52.1,49.07,49.07,52.1,45.32,52.1z"/>
<path class="st1" d="M38.31,42.72c1.62,1.61,1.79,3.26,0.52,4.55c-1.09,1.11-2.95,1.13-4.07,0.04c-1.3-1.26-1.16-2.97,0.39-4.57
	c-3.29,0-6.55,0-9.91,0c0.86,0.59,1.36,1.33,1.41,2.31c0.05,0.83-0.2,1.57-0.76,2.18c-1.02,1.13-2.92,1.19-4.07,0.13
	c-1.25-1.15-1.19-2.88,0.13-4.38c-0.5-0.23-1.07-0.38-1.52-0.71c-0.99-0.71-1.39-1.96-0.91-3.17c0.45-1.13,0.36-2.16,0.08-3.29
	c-1.18-4.73-2.3-9.47-3.43-14.21c-0.12-0.49-0.36-0.71-0.86-0.71c-0.89,0.01-1.78,0.01-2.67,0c-0.78-0.01-1.24-0.45-1.24-1.17
	c0-0.74,0.48-1.19,1.27-1.19c0.92,0,1.85,0,2.77,0c1.38,0,2.49,0.84,2.85,2.18c0.11,0.41,0.17,0.83,0.31,1.22
	c0.06,0.15,0.27,0.37,0.41,0.37c2.69,0.02,5.38,0.01,8.1,0.01c0.07-0.21,0.13-0.41,0.21-0.6c0.38-1.03,1.08-1.8,2.04-2.31
	c0.79-0.41,1.59-0.78,2.39-1.19c1.13-0.57,1.84-1.63,1.98-2.92c0.59,0.34,0.77,0.88,0.88,1.47c0.12,0.6,0.1,1.22-0.23,1.74
	c-0.31,0.49-0.71,0.94-1.13,1.47c0.16,0.02,0.29,0.07,0.41,0.04c1.3-0.16,2.08-0.96,2.37-2.27c0.2-0.91,0.4-1.84,0.79-2.68
	c0.81-1.75,2.31-2.7,4.04-3.2c-0.39,0.97-0.86,1.93-1.16,2.94c-0.21,0.69-0.21,1.44-0.26,2.16c-0.13,1.92-0.97,3.39-2.62,4.39
	c-0.1,0.06-0.15,0.18-0.22,0.27c0.12,0.07,0.24,0.18,0.35,0.19c0.93,0.08,1.71-0.32,2.28-0.97c0.51-0.57,0.87-1.27,1.25-1.94
	c0.41-0.71,0.69-1.51,1.16-2.17c1.21-1.64,2.95-2.18,4.91-2.14c0.65,0.01,1.3,0.11,2.08,0.18c-0.7,0.38-1.27,0.68-1.83,1
	c-1.59,0.94-2.37,2.37-2.53,4.18c-0.07,0.79-0.15,1.58-0.17,2.37c-0.01,0.53,0.06,1.07,0.07,1.6c0.01,0.46,0.06,0.94-0.04,1.38
	c-0.84,3.68-1.71,7.35-2.58,11.03c-0.34,1.44-1.19,2.11-2.66,2.11c-5.41,0-10.83,0.01-16.24-0.01c-0.4,0-0.6,0.1-0.66,0.49
	c-0.04,0.21-0.13,0.4-0.19,0.6c-0.18,0.57,0.01,0.86,0.6,0.93c0.19,0.02,0.39,0.01,0.58,0.01c5.3,0,10.6-0.01,15.9-0.01
	c0.94,0,1.41,0.38,1.41,1.13c-0.01,0.62-0.39,1.05-1,1.1C38.98,42.74,38.69,42.72,38.31,42.72z M31.15,27.75c1.51,0,2.98,0,4.46,0
	c0.15-1.04,0.3-2.06,0.46-3.07c-1.65,0-3.28,0-4.92,0C31.15,25.71,31.15,26.71,31.15,27.75z M19.28,24.66
	c0.22,0.94,0.46,1.83,0.65,2.75c0.07,0.31,0.21,0.38,0.49,0.38c0.81-0.01,1.62-0.01,2.43-0.01c0.52,0,1.02,0,1.56,0
	c-0.18-1.08-0.35-2.08-0.52-3.12C22.36,24.66,20.84,24.66,19.28,24.66z M25.16,24.67c0.18,1.05,0.35,2.08,0.52,3.08
	c1.44,0,2.81,0,4.17,0c0-1.05,0-2.06,0-3.08C28.28,24.67,26.75,24.67,25.16,24.67z M36.88,27.78c1.11,0,2.15,0,3.2,0
	c1.07,0,1.07,0,1.33-1.02c0.17-0.69,0.32-1.38,0.49-2.1c-1.56,0-3.03,0-4.55,0C37.19,25.68,37.04,26.7,36.88,27.78z M24.62,29.06
	c-1.45,0-2.87,0-4.32,0c0.24,1.03,0.46,2.02,0.71,3c0.02,0.1,0.23,0.21,0.35,0.21c0.58,0.02,1.16,0.01,1.75,0.01
	c0.67,0,1.34,0,2.05,0C24.98,31.16,24.81,30.12,24.62,29.06z M36.2,32.28c1.25,0,2.47,0.01,3.68-0.01c0.1,0,0.26-0.14,0.29-0.24
	c0.24-0.98,0.47-1.97,0.71-2.97c-1.41,0-2.78,0-4.18,0C36.52,30.12,36.36,31.16,36.2,32.28z M35.41,29.06c-1.44,0-2.84,0-4.26,0
	c0,1.08,0,2.12,0,3.19c1.26,0,2.5,0,3.78,0C35.09,31.19,35.25,30.13,35.41,29.06z M29.86,29.07c-1.36,0-2.65,0-3.97,0
	c0.16,0.98,0.3,1.92,0.48,2.86c0.02,0.13,0.18,0.34,0.28,0.35c1.06,0.02,2.13,0.01,3.21,0.01C29.86,31.19,29.86,30.15,29.86,29.07z
	 M25.37,33.6c-1.34,0-2.64,0-3.98,0c0.21,0.9,0.42,1.75,0.63,2.62c1.26,0,2.5,0,3.78,0C25.65,35.33,25.51,34.47,25.37,33.6z
	 M36,33.57c-0.13,0.89-0.26,1.75-0.39,2.66c1.05,0,2.08,0.02,3.12-0.02c0.19-0.01,0.47-0.27,0.53-0.47c0.21-0.7,0.35-1.42,0.52-2.17
	C38.51,33.57,37.29,33.57,36,33.57z M34.36,36.21c0.13-0.87,0.25-1.73,0.38-2.63c-1.22,0-2.39,0-3.59,0c0,0.88,0,1.75,0,2.63
	C32.22,36.21,33.27,36.21,34.36,36.21z M26.63,33.57c0.15,0.91,0.3,1.77,0.44,2.62c0.95,0,1.87,0,2.79,0c0-0.89,0-1.75,0-2.62
	C28.78,33.57,27.75,33.57,26.63,33.57z M22.75,45.19c-0.01,0.63,0.41,1.08,1.04,1.09c0.59,0.01,1.03-0.42,1.05-1.02
	c0.01-0.62-0.43-1.1-1.03-1.1C23.22,44.15,22.76,44.6,22.75,45.19z M36.78,46.27c0.6-0.01,1.08-0.5,1.06-1.09
	c-0.01-0.56-0.52-1.04-1.08-1.03c-0.57,0.01-1.08,0.52-1.06,1.11C35.72,45.82,36.22,46.28,36.78,46.27z"/>
</svg>
