<?xml version="1.0" encoding="utf-8"?>
<!-- Generator: Adobe Illustrator 27.0.0, SVG Export Plug-In . SVG Version: 6.00 Build 0)  -->
<svg version="1.1" id="Layer_1" xmlns="http://www.w3.org/2000/svg" xmlns:xlink="http://www.w3.org/1999/xlink" x="0px" y="0px"
	 viewBox="0 0 200 200" style="enable-background:new 0 0 200 200;" xml:space="preserve">
<style type="text/css">
	.st0{fill:url(#SVGID_1_);}
	.st1{fill:#2C3E50;}
</style>
<linearGradient id="SVGID_1_" gradientUnits="userSpaceOnUse" x1="11.7646" y1="7.2447" x2="187.1082" y2="195.5448" gradientTransform="matrix(1 0 0 -1 0 202)">
	<stop  offset="0" style="stop-color:#F0C419"/>
	<stop  offset="0.1441" style="stop-color:#EDBA1D"/>
	<stop  offset="0.4178" style="stop-color:#E9AC22"/>
	<stop  offset="0.6997" style="stop-color:#E6A423"/>
	<stop  offset="1" style="stop-color:#E5A124"/>
</linearGradient>
<path class="st0" d="M169.3,200H30.7C13.73,200,0,186.27,0,169.3V30.7C0,13.73,13.73,0,30.7,0h138.6C186.27,0,200,13.73,200,30.7
	v138.6C200,186.27,186.27,200,169.3,200z"/>
<path class="st1" d="M137.6,157.57c7.33,7.27,8.1,14.73,2.37,20.6c-4.93,5.03-13.37,5.1-18.43,0.2c-5.87-5.7-5.27-13.43,1.77-20.67
	c-14.9,0-29.63,0-44.83,0c3.9,2.67,6.13,6,6.4,10.43c0.23,3.77-0.9,7.1-3.43,9.87c-4.63,5.13-13.2,5.37-18.43,0.57
	c-5.67-5.2-5.37-13.03,0.57-19.83c-2.27-1.03-4.83-1.73-6.87-3.2c-4.47-3.23-6.3-8.87-4.1-14.33c2.03-5.1,1.63-9.77,0.37-14.87
	c-5.33-21.4-10.4-42.83-15.5-64.3c-0.53-2.23-1.63-3.23-3.9-3.23c-4.03,0.03-8.07,0.03-12.1,0c-3.53-0.03-5.63-2.03-5.63-5.3
	c0-3.33,2.17-5.4,5.77-5.4c4.17,0,8.37,0,12.53,0c6.27,0,11.27,3.8,12.9,9.87c0.5,1.83,0.77,3.73,1.4,5.5
	c0.27,0.7,1.2,1.67,1.83,1.67c12.17,0.1,24.33,0.07,36.63,0.07c0.33-0.97,0.6-1.83,0.93-2.7c1.73-4.67,4.87-8.17,9.23-10.47
	c3.57-1.87,7.2-3.53,10.8-5.37c5.1-2.6,8.33-7.37,8.97-13.23c2.67,1.53,3.5,4,4,6.63c0.53,2.73,0.47,5.5-1.03,7.87
	c-1.4,2.23-3.23,4.23-5.1,6.63c0.73,0.1,1.3,0.3,1.87,0.2c5.87-0.73,9.4-4.33,10.73-10.27c0.9-4.1,1.8-8.33,3.57-12.13
	c3.67-7.9,10.43-12.23,18.27-14.47c-1.77,4.4-3.9,8.73-5.27,13.3c-0.93,3.1-0.93,6.5-1.17,9.77c-0.6,8.67-4.37,15.33-11.87,19.87
	c-0.43,0.27-0.67,0.83-1,1.23c0.53,0.3,1.07,0.8,1.6,0.87c4.2,0.37,7.73-1.47,10.33-4.4c2.3-2.57,3.93-5.73,5.67-8.77
	c1.87-3.23,3.1-6.83,5.27-9.8c5.47-7.4,13.37-9.87,22.2-9.7c2.93,0.07,5.87,0.5,9.4,0.83c-3.17,1.73-5.77,3.07-8.27,4.53
	c-7.2,4.23-10.73,10.73-11.43,18.93c-0.3,3.57-0.67,7.17-0.77,10.73c-0.07,2.4,0.27,4.83,0.3,7.23c0.03,2.1,0.27,4.27-0.2,6.27
	c-3.8,16.67-7.73,33.27-11.67,49.9c-1.53,6.5-5.4,9.53-12.03,9.53c-24.5,0-49,0.03-73.5-0.03c-1.8,0-2.7,0.43-3,2.2
	c-0.17,0.93-0.57,1.8-0.87,2.7c-0.8,2.57,0.03,3.9,2.73,4.2c0.87,0.1,1.77,0.07,2.63,0.07c24,0,47.97-0.03,71.97-0.03
	c4.27,0,6.4,1.73,6.37,5.13c-0.03,2.8-1.77,4.73-4.53,4.97C140.63,157.67,139.3,157.57,137.6,157.57z M105.2,89.83
	c6.83,0,13.47,0,20.2,0c0.7-4.7,1.37-9.3,2.07-13.9c-7.47,0-14.83,0-22.27,0C105.2,80.6,105.2,85.1,105.2,89.83z M51.5,75.83
	c1,4.23,2.07,8.3,2.93,12.43c0.3,1.4,0.93,1.73,2.23,1.7c3.67-0.07,7.33-0.03,11-0.03c2.33,0,4.63,0,7.07,0
	c-0.8-4.87-1.57-9.43-2.33-14.1C65.43,75.83,58.57,75.83,51.5,75.83z M78.1,75.87c0.8,4.77,1.57,9.4,2.33,13.93
	c6.5,0,12.7,0,18.87,0c0-4.73,0-9.3,0-13.93C92.23,75.87,85.3,75.87,78.1,75.87z M131.13,89.93c5,0,9.73,0,14.47,0
	c4.83,0,4.83,0,6-4.6c0.77-3.13,1.43-6.27,2.2-9.5c-7.07,0-13.7,0-20.6,0C132.53,80.47,131.83,85.07,131.13,89.93z M75.67,95.77
	c-6.57,0-12.97,0-19.53,0c1.1,4.67,2.1,9.13,3.23,13.57c0.1,0.43,1.03,0.93,1.6,0.93c2.63,0.1,5.27,0.03,7.9,0.03
	c3.03,0,6.07,0,9.27,0C77.3,105.27,76.5,100.53,75.67,95.77z M128.03,110.33c5.67,0,11.17,0.03,16.63-0.03c0.43,0,1.17-0.63,1.3-1.1
	c1.1-4.43,2.13-8.9,3.2-13.43c-6.4,0-12.6,0-18.93,0C129.5,100.53,128.8,105.23,128.03,110.33z M124.47,95.77
	c-6.5,0-12.83,0-19.27,0c0,4.87,0,9.6,0,14.43c5.7,0,11.3,0,17.1,0C123.03,105.37,123.73,100.6,124.47,95.77z M99.37,95.8
	c-6.13,0-12,0-17.97,0c0.73,4.43,1.37,8.7,2.17,12.93c0.1,0.6,0.8,1.53,1.27,1.57c4.8,0.1,9.63,0.07,14.53,0.07
	C99.37,105.4,99.37,100.67,99.37,95.8z M79.07,116.27c-6.07,0-11.97,0-18,0c0.97,4.07,1.9,7.93,2.83,11.83c5.7,0,11.3,0,17.1,0
	C80.33,124.1,79.7,120.23,79.07,116.27z M127.17,116.13c-0.6,4.03-1.17,7.93-1.77,12.03c4.77,0,9.43,0.1,14.1-0.1
	c0.87-0.03,2.13-1.23,2.4-2.13c0.97-3.17,1.57-6.43,2.37-9.83C138.5,116.13,132.97,116.13,127.17,116.13z M119.73,128.1
	c0.57-3.93,1.13-7.83,1.7-11.9c-5.53,0-10.83,0-16.23,0c0,4,0,7.9,0,11.9C110.07,128.1,114.8,128.1,119.73,128.1z M84.73,116.17
	c0.7,4.13,1.37,8,2,11.83c4.3,0,8.47,0,12.63,0c0-4.03,0-7.9,0-11.83C94.5,116.17,89.8,116.17,84.73,116.17z M67.2,168.73
	c-0.03,2.87,1.87,4.9,4.7,4.93c2.67,0.07,4.67-1.9,4.73-4.63c0.07-2.8-1.97-4.97-4.67-4.97C69.3,164.03,67.23,166.07,67.2,168.73z
	 M130.7,173.63c2.7-0.03,4.87-2.27,4.8-4.93c-0.07-2.53-2.33-4.7-4.87-4.67c-2.6,0.03-4.87,2.37-4.8,5
	C125.87,171.57,128.13,173.67,130.7,173.63z"/>
</svg>
